<?xml version="1.0" encoding="utf-8"?>
<!-- Generator: Adobe Illustrator 23.1.1, SVG Export Plug-In . SVG Version: 6.00 Build 0)  -->
<svg version="1.1" id="Layer_1" xmlns="http://www.w3.org/2000/svg" xmlns:xlink="http://www.w3.org/1999/xlink" x="0px" y="0px"
	 viewBox="0 0 513.7 76.3" style="enable-background:new 0 0 513.7 76.3;" xml:space="preserve">
<style type="text/css">
	.st0{fill:#ffffff;}
</style>
<title>logo-master</title>
<g>
	<path class="st0" d="M164.7,62.5c-0.1,0.5-0.1,1.1-0.1,1.6c-0.1,3.7-0.7,5.8-2.2,7.7c-1.5,1.8-3.4,3.1-5.6,3.9
		c-0.3-0.8-0.8-1.5-1.4-2.1c1.4-0.4,2.7-1,3.9-1.9c2.2-1.8,3-3.8,3-8c0-0.4,0-0.8-0.1-1.2H164.7z M173.4,59.7
		c-0.2,0.3-0.4,0.6-0.6,0.9c-1.3,2.8-3.5,5.1-6.3,6.5c-0.4-0.7-1-1.2-1.6-1.7c1.2-0.4,2.3-1.1,3.3-2c0.9-0.8,1.7-1.8,2.2-2.9h-11.8
		c-0.9,0-1.9,0-2.8,0.1v-2.3c0.9,0.1,1.9,0.2,2.8,0.1h11.5c0.7,0.1,1.3,0,2-0.2L173.4,59.7z"/>
	<path class="st0" d="M179.9,57.8c-0.1,0.9-0.1,1.7-0.1,2.6l-0.1,12.2c2.1-0.4,4.2-1.1,6-2.3c2-1.3,3.6-3,4.6-5.1
		c0.5,0.7,1,1.3,1.7,1.9c-1.2,2-2.8,3.6-4.7,4.9c-2.4,1.5-5,2.5-7.8,2.9c-0.4,0.1-0.9,0.2-1.3,0.4l-1.2-1.5c0.2-0.6,0.2-1.3,0.2-1.9
		l0.1-11.5v-0.6c0-0.7,0-1.4-0.1-2.1L179.9,57.8z"/>
	<path class="st0" d="M203.6,57.4c-0.2,0.3-0.3,0.5-0.5,0.8c-0.3,0.6-0.6,1.2-0.9,1.8l0.9-0.1l5.2-0.1c0.5,0,0.9,0,1.4-0.2l1.2,1.2
		c-0.2,0.4-0.4,0.8-0.5,1.2c-0.9,3-2.4,5.9-4.4,8.3c-2.1,2.4-4.7,4.3-7.7,5.5c-0.4-0.7-0.9-1.4-1.5-1.9c2.9-1.1,5.5-2.9,7.5-5.2
		c1.7-2,3-4.4,3.7-6.9l-6.9,0.1c-1.4,2.1-3.1,4-5.1,5.6c-0.4-0.7-1.1-1.2-1.8-1.6c2.3-1.6,4.3-3.7,5.6-6.2c0.6-0.9,1-1.9,1.2-3
		L203.6,57.4z"/>
	<path class="st0" d="M225.7,61.7v-2c0-0.7,0-1.5-0.1-2.2h2.3c-0.1,0.5-0.1,0.6-0.1,1.5v2.7h1.6c0.9,0,1.8,0,2.7-0.1v2.3
		c-0.9-0.1-1.8-0.1-2.7-0.1h-1.6c0,1.3,0,2.5-0.2,3.8c-0.1,2.4-1.3,4.6-3.1,6.1c-1.2,1-2.6,1.8-4.1,2.2c-0.3-0.7-0.8-1.4-1.4-1.9
		c1.5-0.4,2.9-1.1,4.1-2.1c1.5-1.3,2.1-2.7,2.3-5.3c0-0.6,0.1-1.4,0.1-2.8h-6v2.6c0,0.9,0,1.8,0.1,2.6h-2.4c0.1-0.7,0.1-1.5,0.1-2.6
		v-2.6h-1.5c-0.9,0-1.8,0-2.7,0.1v-2.3c0.9,0.1,1.8,0.2,2.7,0.1h1.5v-2c0-0.7,0-1.5-0.1-2.2h2.5c-0.1,0.7-0.1,1.5-0.1,2.2v2
		L225.7,61.7z"/>
	<path class="st0" d="M234.5,72.4c2.2-0.2,4.4-0.7,6.4-1.6c2.6-1.1,4.9-2.9,6.5-5.3c0.9-1.4,1.7-2.8,2.3-4.4
		c0.5,0.7,1.2,1.3,1.9,1.8c-1.4,3.4-3.7,6.4-6.8,8.4c-2.5,1.6-5.3,2.7-8.2,3.3c-0.5,0.1-0.9,0.2-1.4,0.4L234.5,72.4z M236.1,58.9
		c2,1.2,3.8,2.6,5.5,4.1L240,65c-1.6-1.7-3.4-3.2-5.4-4.4L236.1,58.9z"/>
	<path class="st0" d="M270,60.9c-0.3,0.4-0.5,0.9-0.7,1.4c-0.7,2-1.6,3.9-2.7,5.7c-2.2,3.5-5.2,6-9.8,8.1c-0.4-0.7-0.9-1.4-1.5-1.9
		c1.5-0.6,3-1.3,4.3-2.2c1.4-0.9,2.6-1.9,3.6-3.2c-1.4-1.3-3-2.4-4.6-3.3l1.4-1.6c1.6,0.9,3.1,1.9,4.5,3.1c1.1-1.7,2-3.6,2.6-5.5
		l-7.1,0.1c-1.4,2.2-3.1,4.1-5.1,5.7c-0.5-0.6-1.1-1.1-1.8-1.5c2.3-1.6,4.2-3.8,5.5-6.2c0.5-0.9,1-1.9,1.3-3l2.4,0.6
		c-0.3,0.4-0.5,0.9-0.7,1.3c-0.2,0.4-0.4,0.7-0.6,1.1h0.9l6.5-0.1c-0.5-0.9-1.1-1.8-1.8-2.5l1.3-0.7c0.9,1,1.7,2.1,2.3,3.3l-1,0.5
		L270,60.9z M271,55.6c0.9,0.9,1.7,2,2.2,3.2l-1.3,0.8c-0.6-1.2-1.4-2.3-2.2-3.3L271,55.6z"/>
	<path class="st0" d="M273.5,65.1c1.1,0.1,2.2,0.2,3.3,0.1h11.8c1.1,0,2.2,0,3.2-0.1v2.5c-1.1-0.1-2.2-0.1-3.3-0.1h-11.7
		c-1.1,0-2.2,0-3.4,0.1V65.1z"/>
	<path class="st0" d="M308.5,75c-0.4-0.5-0.8-1-1.2-1.5l-0.3-0.3c-0.8,0.7-1.6,1.2-2.6,1.6c-1,0.4-2.1,0.6-3.3,0.6
		c-1.6,0.1-3.2-0.4-4.3-1.5c-0.8-0.9-1.3-2.1-1.3-3.3c0-1.3,0.5-2.5,1.4-3.5c0.8-0.8,1.7-1.4,2.7-1.8l-0.7-0.7
		c-0.9-0.8-1.4-1.9-1.4-3.1c0-2.3,1.9-3.8,4.8-3.8s4.8,1.5,4.8,3.8c0,1.3-0.6,2.4-1.7,3.2c-0.8,0.5-1.6,0.9-2.5,1.3l4,4
		c1.1-1.3,1.8-2.9,2.1-4.6l2,1c-0.3,1-0.8,2-1.3,3c-0.4,0.7-0.9,1.5-1.4,2.1l1.5,1.5c0.8,0.8,1.6,1.5,2.2,2L308.5,75z M300.9,66.8
		c-0.8,0.3-1.5,0.8-2.2,1.3c-0.6,0.6-1,1.4-1,2.2c0,1.8,1.3,2.9,3.5,2.9c1.6,0,3.1-0.6,4.2-1.7L300.9,66.8z M301.6,64.4l0.6-0.3
		c0.6-0.3,1.2-0.6,1.8-1c0.6-0.4,0.9-1,0.9-1.7c0-1.2-1-1.9-2.5-1.9s-2.5,0.8-2.5,2c0,0.8,0.4,1.5,1,2L301.6,64.4z"/>
	<path class="st0" d="M317.8,73.5c-0.9,0-1.9,0-2.8,0.1v-2.4c0.9,0.1,1.9,0.2,2.8,0.1h9.8v-9.9h-9.4c-1,0-1.9,0-2.9,0.1v-2.4
		c1,0.1,1.9,0.2,2.9,0.1h10c1.1,0,1.1,0,1.8,0c0,0.6,0,1.2,0,1.8v11.4c0,0.8,0,1.6,0.1,2.3h-2.4v-1.3L317.8,73.5z"/>
	<path class="st0" d="M334.4,65.1c1.1,0.1,2.2,0.2,3.3,0.1h11.8c1.1,0,2.2,0,3.2-0.1v2.5c-1.1-0.1-2.2-0.1-3.3-0.1h-11.7
		c-1.1,0-2.2,0-3.4,0.1V65.1z"/>
	<path class="st0" d="M362.5,72.8c0,1.9-1.6,3.5-3.5,3.5c-1.9,0-3.5-1.6-3.5-3.5c0-1.9,1.6-3.5,3.5-3.5
		C360.9,69.3,362.5,70.8,362.5,72.8C362.5,72.8,362.5,72.8,362.5,72.8z M357.1,72.8c0,1.1,0.8,1.9,1.9,1.9c1.1,0,1.9-0.8,1.9-1.9
		s-0.8-1.9-1.9-1.9c0,0,0,0,0,0C358,70.9,357.1,71.7,357.1,72.8z"/>
	<path class="st0" d="M29.5,0h1.3l19.9,37.8c0.6,1.1,1.3,2.1,2.1,2.9c0.9,0.9,2,1.6,3.1,2.1c1.1,0.4,2.3,0.5,3.5,0.5h1.3l0,0.8H31.6
		v-1.2h3.8c1.4,0.1,2.8-0.1,4.1-0.7c0.8-0.4,1.3-1.2,1.3-2.1c0-0.7-0.2-1.4-0.5-2.1c-0.3-0.8-1.1-2.3-2.2-4.5L37.6,33
		c-0.1-0.3-0.3-0.6-0.5-0.8l-0.8-1.6h-21l-1.6,3.2c-0.5,1-0.8,2.2-0.8,3.3c0,1,0.3,2,0.9,2.8c0.6,0.9,1.4,1.6,2.4,2.1
		c0.5,0.3,1.1,0.5,1.7,0.7c0.7,0.1,1.4,0.2,2.2,0.2v1.2H0v-1.2c1.2-0.1,2.4-0.3,3.5-0.7c1-0.4,2-0.9,2.9-1.5
		c2.5-1.7,4.9-4.9,7.3-9.6L29.5,0z M25.7,10.2L16,29.5h19.7L25.7,10.2z"/>
	<path class="st0" d="M56.6,13.8h23.7v0.8h-2.5C76,14.5,74.4,15,73,16c-1.1,1.1-1.7,2.6-1.5,4.2v23.2h9c3.4,0,6.7-1.4,9.1-3.9
		c0.7-0.7,1.3-1.5,1.8-2.3c0.6-0.9,1.1-1.8,1.5-2.7c0.5-1.2,1-2.4,1.4-3.7h0.9v13.4H56.6l0-0.8h1.3c4.2,0,6.3-1.9,6.3-5.5V20.2
		c0-3.7-2.1-5.5-6.3-5.5h-1.2L56.6,13.8z"/>
	<path class="st0" d="M95.2,13.8h36.4c0.3,0,0.5,0.2,0.5,0.4c0,0,0,0,0,0v11.3h-0.7c-0.5-1.6-1.1-3.1-1.8-4.6
		c-0.6-1.1-1.3-2-2.1-2.9c-0.9-1-2.1-1.8-3.4-2.3c-2.4-0.8-4.9-1.2-7.4-1.1h-6.4c-0.3,0-0.5,0.2-0.5,0.4c0,0,0,0,0,0v13.5
		c0,0.3,0.2,0.5,0.5,0.4h1.3c2.5,0.1,5-1.1,6.5-3.1c0.9-1.1,1.5-2.4,1.8-3.8c0.3-0.9,0.4-1.8,0.5-2.8h0.9v19.9h-0.9
		c-0.2-1-0.4-2-0.7-3c-0.2-0.8-0.5-1.6-0.9-2.3c-0.4-0.6-0.8-1.2-1.3-1.8c-1.7-1.7-4-2.5-6.3-2.4h-1.4v13.1c0,0.3,0.2,0.5,0.5,0.4
		h5.2c1.5,0,3-0.1,4.5-0.3c1.2-0.2,2.5-0.5,3.6-1c1.1-0.4,2.1-1,3-1.7c1.6-1.2,2.9-2.7,3.8-4.5c0.6-1.3,1.2-2.7,1.6-4.2h0.9v12
		c0,0.3-0.2,0.5-0.5,0.4c0,0,0,0,0,0H94.9c-0.3,0-0.5-0.2-0.5-0.4c0,0,0-0.1,0-0.1l0.8-3l0,0c0,2.2,3.8,3,5.6,1.4
		c1.2-1.1,1.8-2.6,1.6-4.2V20.2c0.1-1.5-0.4-3.1-1.5-4.2c-1.4-1-3.1-1.5-4.8-1.4h-0.9V13.8z"/>
	<path class="st0" d="M319.1,29.3h-7.8v8.5c-0.1,1.5,0.5,3.1,1.6,4.1c1.4,1,3,1.5,4.7,1.4h1v0.8h-21.9v-0.8h1
		c1.7,0.1,3.4-0.4,4.8-1.4c1.1-1.1,1.7-2.6,1.5-4.1V20.2c0.1-1.5-0.4-3.1-1.5-4.2c-1.4-1-3.1-1.5-4.8-1.4h-1v-0.8h26.9
		c2.9-0.1,5.8,0.2,8.6,0.7c1.8,0.3,3.6,1.1,5,2.3c0.7,0.6,1.3,1.4,1.7,2.2c0.4,0.8,0.6,1.6,0.6,2.5c0,2.3-1.4,4.1-4.1,5.5
		c-1.3,0.6-2.7,1-4.1,1.3c-1.7,0.4-3.4,0.6-5.1,0.8c-1.3,0.1-3.3,0.1-6,0.1v0.1c1.3,0.8,2.5,1.4,3.6,1.9c1.1,0.5,2.1,0.9,3.2,1.2
		c1.2,0.4,2.5,0.7,3.7,0.9l0.8,1.1c0.5,0.7,1,1.2,1.2,1.6l0.9,1.2c0.9,1.2,1.8,2.3,2.6,3.2c0.6,0.7,1.3,1.3,2.1,1.9
		c1.2,0.6,2.5,1,3.8,1v1.3l-11.2-0.5L319.1,29.3z M311.3,28.5h9.9c1.9,0.1,3.9-0.2,5.7-0.8c2.8-0.7,4.7-3.3,4.5-6.2
		c0-4.6-3.3-6.9-10-6.9h-10L311.3,28.5z"/>
	<path class="st0" d="M459,28.9h1.2c-0.5,1.6-1.1,3.1-1.9,4.6c-0.8,1.4-1.7,2.7-2.8,3.8c-4.8,5.2-11.2,7.7-19.2,7.7
		c-4.9,0-9.7-1-14.1-3.1c-4.1-1.8-7.7-4.7-10.4-8.3c-2.5-3.2-3.8-7.2-3.9-11.2c0-2.5,0.5-4.9,1.5-7.1c1.1-2.5,2.6-4.7,4.5-6.6
		c2-2.1,4.3-3.9,6.8-5.3c4.1-2.3,8.8-3.4,13.5-3.4c1.6,0,3.2,0.1,4.8,0.4c1.5,0.2,2.9,0.7,4.3,1.2c1.5,0.6,2.9,1.4,4.2,2.2
		c1.1,0.8,2.3,1.3,3.5,1.5c1.7,0,3.8-1.5,6.3-4.6h1.2l1,20.8h-1.2c-0.3-1.2-0.7-2.5-1.2-3.7c-0.4-1-0.9-2-1.5-3
		c-1.5-2.8-3.5-5.3-5.8-7.5c-2.1-2-4.6-3.6-7.3-4.8c-2.6-1.1-5.3-1.6-8.1-1.6c-2.9-0.1-5.7,0.7-8.1,2.3c-2.3,1.8-3.9,4.4-4.6,7.2
		c-1.1,4-1.6,8.2-1.5,12.4c0,2.6,0.2,5.1,0.5,7.7c0.3,2,0.8,3.9,1.7,5.6c0.7,1.5,1.6,2.8,2.8,3.9c1.5,1.3,3.2,2.2,5.1,2.8
		c2.1,0.7,4.3,1,6.5,1c2.1,0,4.3-0.2,6.3-0.7c2-0.5,3.9-1.2,5.7-2.2c1.8-1,3.4-2.2,4.8-3.6c1.1-1.1,2.1-2.3,2.9-3.6
		C457.7,32.1,458.4,30.5,459,28.9z"/>
	<path class="st0" d="M483.2,13.2c3,0,6,0.4,8.9,1.4c2.6,0.8,5,2.2,7,4c1.6,1.4,2.9,3.1,3.9,4.9c0.9,1.7,1.4,3.6,1.4,5.6
		c0,2.9-1,5.6-2.8,7.9c-2,2.5-4.6,4.5-7.5,5.7c-3.3,1.4-6.8,2.2-10.4,2.1c-2.8,0-5.5-0.4-8.1-1.2c-2.4-0.7-4.7-1.9-6.7-3.4
		c-1.9-1.4-3.4-3.1-4.5-5.1c-1.1-1.8-1.6-3.9-1.6-6.1c0-2.9,1-5.6,2.8-7.9c2-2.5,4.6-4.5,7.5-5.8C476.2,13.9,479.7,13.2,483.2,13.2z
		 M483.9,14c-1.4,0-2.9,0.2-4.3,0.7c-1.2,0.4-2.4,1.1-3.4,1.9c-1,0.9-1.9,2-2.5,3.2c-0.7,1.3-1.3,2.7-1.6,4.2
		c-0.4,1.6-0.5,3.3-0.5,5c0,2.1,0.3,4.1,0.8,6.1c0.5,1.7,1.3,3.3,2.4,4.7c1,1.3,2.3,2.3,3.8,3c1.5,0.7,3.2,1,4.9,1
		c2.3,0.1,4.5-0.6,6.4-1.8c1.9-1.3,3.3-3.1,4.2-5.2c1-2.6,1.5-5.3,1.5-8.1c0-1.9-0.3-3.8-0.8-5.7c-0.5-1.7-1.2-3.2-2.3-4.6
		c-1-1.3-2.2-2.3-3.6-3.1c-0.8-0.4-1.6-0.8-2.4-1C485.7,14.1,484.8,14,483.9,14L483.9,14z"/>
	<path class="st0" d="M507.7,34.7c1.5,0,3,0.5,4.2,1.5c2,1.6,2.3,4.5,0.7,6.5c-0.2,0.3-0.5,0.5-0.7,0.7c-2.4,2-5.8,2-8.2,0
		c-1.1-0.9-1.7-2.2-1.7-3.6c0-1.4,0.6-2.7,1.7-3.5C504.8,35.3,506.2,34.7,507.7,34.7z"/>
	<path class="st0" d="M214.5,43.3c-1.4,0-2.8-0.5-3.8-1.5l-0.1,0l-0.2-0.2l-0.2-0.2c-0.4-0.5-0.8-1-1.1-1.5l-13.9-26.5h-0.9
		l-11,21.8c-0.9,1.9-2.1,3.6-3.4,5.2c-1.3,1.3-3.3,1.5-4.8,0.4c-0.8-0.6-1.6-1.3-2.4-2.1l-11.5-11.8l6.2-5.5c2.4-2.1,5-3.8,7.9-5.1
		c1.8-0.8,3.7-1.3,5.7-1.5v-0.8h-18.6v0.8c1.5,0,2.9,0.3,4.2,1c0.9,0.5,1.5,1.4,1.5,2.4c0,1-0.7,2.1-2,3.3l-5.5,4.8l-7-7.1
		c-0.4-0.4-0.7-0.9-1-1.4c-0.2-0.4-0.3-0.8-0.4-1.2c0-0.6,0.4-1.1,1.1-1.4c1-0.4,2-0.6,3-0.5h0.4v-0.8h-22.6v0.8h0.9
		c3.6,0,6.9,1.5,9.3,4.2l11.5,11.6l-7,6.2c-2.4,2.1-5.1,3.8-8,5c-1,0.4-2.1,0.8-3.2,1.1c-1.1,0.3-2.3,0.5-3.5,0.6v0.8h20.7v-0.8h-1
		c-1.4,0.1-2.8-0.2-4.1-0.9c-0.9-0.5-1.5-1.4-1.5-2.5c0-0.4,0.1-0.8,0.2-1.2c0.2-0.5,0.5-0.9,0.8-1.2c0.4-0.5,0.9-1,1.4-1.4l5.7-5.1
		l8,8.2c0.7,0.5,1.1,1.3,1.2,2.2c0,0.6-0.4,1.1-1.2,1.5c-1.1,0.4-2.2,0.6-3.3,0.5h-2v0.8h28.6v-0.8c-0.5,0-1-0.1-1.5-0.2
		c-0.4-0.1-0.8-0.3-1.2-0.5c-0.7-0.3-1.2-0.8-1.7-1.5c-0.4-0.6-0.6-1.3-0.6-2c0-0.8,0.2-1.6,0.5-2.3l1.1-2.2h14.7l0.6,1.1
		c0.1,0.2,0.2,0.4,0.3,0.6c0.1,0.2,0.2,0.4,0.2,0.4c0.8,1.5,1.3,2.6,1.6,3.1c0.2,0.5,0.3,1,0.4,1.5c0,0.6-0.3,1.2-0.9,1.4
		c-0.9,0.4-1.9,0.5-2.9,0.5h-2.6V44h20.1v-0.8L214.5,43.3z M184.8,33.8l6.8-13.5l7,13.5H184.8z"/>
	<path class="st0" d="M298.6,23.8c-1-1.9-2.3-3.6-4-4.9c-2-1.8-4.4-3-7-3.8c-3.2-0.9-6.5-1.3-9.8-1.2h-17.9v0.8h-0.3
		c-0.5,0-1,0-1.4,0.1c0.6,0.1,1.2,0.3,1.8,0.6c0.4,0.2,0.7,0.4,1,0.6c0.4,0.4,0.7,0.8,0.9,1.3l0.1,0.2c0.1,0.2,0.1,0.4,0.2,0.5
		c0,0.1,0.1,0.2,0.1,0.4c0.1,0.6,0.2,1.2,0.2,1.8v17.6c0.1,1.5-0.4,3.1-1.5,4.1c-1.4,1-3.1,1.5-4.8,1.4h-1.3v0.8h24.6
		c2.8,0,5.5-0.3,8.2-1.1c2.3-0.6,4.6-1.7,6.6-3c1.8-1.2,3.2-2.8,4.3-4.7c1-1.8,1.5-3.8,1.5-5.9C300,27.4,299.5,25.5,298.6,23.8z
		 M287.2,40.4c-0.8,0.7-1.6,1.3-2.6,1.7c-1.1,0.5-2.3,0.8-3.5,0.9c-1.6,0.2-3.2,0.3-4.8,0.3h-6.7V14.6h6.2c1.6,0,3.2,0.1,4.8,0.3
		c1.2,0.2,2.4,0.5,3.5,0.9c1,0.4,1.9,1,2.7,1.7c1,0.9,1.8,1.9,2.4,3c0.7,1.2,1.2,2.5,1.5,3.9c0.3,1.5,0.5,3.1,0.5,4.7
		C291.4,34.2,290,37.9,287.2,40.4z"/>
	<path class="st0" d="M257.1,14.6c0.3,0,0.7,0,1,0.1c0.5-0.1,1-0.1,1.4-0.1h0.3v-0.8h-17.1v0.8c0.9,0,1.8,0.2,2.7,0.3
		c0.7,0.2,1.3,0.4,1.9,0.7c1.2,0.6,2.1,1.5,2.7,2.7c0.6,1.3,1,2.7,0.9,4.2v13l-24.1-21.8h-13.9v0.8h0.5c1.3,0,2.5,0.2,3.7,0.6
		c0.9,0.3,1.7,0.9,2.3,1.7c0.6,0.8,0.8,1.7,0.8,2.7v17.1c0,1.2-0.2,2.5-0.8,3.6c-0.2,0.3-0.4,0.6-0.6,0.9c-1,1.3-2.5,2.1-4.1,2.1
		h1.2v0.8h14.5v-0.8c-1,0-2-0.1-3-0.2c-1.1-0.1-2.2-0.4-3.1-0.9c-1-0.5-1.9-1.4-2.3-2.5c-0.5-1.3-0.8-2.8-0.7-4.2v-18l29.9,26.8h0.8
		V22.8c0-0.1,0-0.3,0-0.4v-3.2C251.9,16.7,254.2,14.6,257.1,14.6z"/>
	<path class="st0" d="M406.7,28.6c-0.1,1.6-0.3,3.1-0.7,4.7c-0.3,1.1-0.8,2.2-1.5,3.1c-0.7,1-1.7,1.9-2.8,2.5
		c-1,0.6-2.2,0.9-3.4,0.9c-1.9,0-3.7-0.6-5.4-1.5c-2.3-1.4-4.4-3-6.2-4.9c1.3-1.3,2.4-2.6,3.4-3.9s2-2.7,3.2-4.4
		c1-1.5,2.1-2.9,3.2-4.2c0.9-1,2-1.8,3.2-2.4c1-0.6,2-1,3.1-1.3c1.7-0.2,3.3-0.3,5-0.4c0.1-0.4,0.3-0.9,0.4-1.3h-25.8v1.1h1.8
		c2-0.1,4,0.4,5.7,1.4c1.3,0.8,2.1,2.3,2.1,3.9c-0.1,1.6-0.6,3.2-1.5,4.6c-1.4,2.1-3.1,4.1-4.9,5.9c-2.5-2.4-4.2-4.1-5.3-5.3
		c-2.2-2.2-4.6-4.8-7.1-7.6l-1.7-1.8c1.8-0.6,3.4-1.4,5-2.5c1.1-0.7,2.1-1.7,2.7-2.9c0.6-1.1,0.9-2.4,0.9-3.7
		c0.1-2.4-0.9-4.6-2.7-6.2c-1.9-1.7-4.3-2.6-6.8-2.5c-2.1,0-4.3,0.5-6.1,1.6c-1.8,1.1-3.3,2.6-4.3,4.4c-1.1,1.9-1.6,4.1-1.6,6.3
		c0.1,2.8,0.8,5.5,2,7.9l-3.2,1c-3,0.9-5.5,1.7-7.3,2.3c-1.6,0.6-3.2,1.3-4.7,2.1c-1.3,0.7-2.5,1.6-3.6,2.6
		c-2.3,2.1-3.5,4.4-3.5,6.8c0,2.8,1.5,5,4.4,6.7c2,1.2,4.2,2,6.5,2.4c2.8,0.6,5.7,0.9,8.5,0.9c3.3,0,6.7-0.4,9.9-1.2
		c3.4-0.9,6.6-2.2,9.7-3.8c2.1,1.6,4.5,2.9,6.9,4c2.1,0.8,4.2,1.2,6.4,1.1c2.6,0,5.1-0.5,7.5-1.5c2.2-0.9,4.2-2.4,5.8-4.2
		c1.1-1.3,2-2.8,2.6-4.4c0.6-2,1-4.1,1.1-6.2v0L406.7,28.6z M365.7,2.6c1-0.9,2.2-1.4,3.5-1.3c1.9,0.1,3.6,1,4.6,2.6
		c0.8,1.1,1.4,2.3,1.8,3.5c0.4,1.2,0.7,2.4,0.7,3.7c0,1.2-0.5,2.4-1.3,3.2c-1.3,1.1-2.7,1.9-4.3,2.4l-1.4-1.7
		c-1.5-1.8-2.9-3.8-4.1-5.8c-0.6-1.1-1-2.2-1.1-3.5C364.2,4.6,364.7,3.4,365.7,2.6L365.7,2.6z M375.4,39.6c-2.1,1-4.2,1.8-6.4,2.4
		c-1.7,0.4-3.4,0.7-5.2,0.6c-4.1,0-7.3-1.1-9.8-3.2c-0.8-0.7-1.6-1.6-2.2-2.5c-0.6-0.9-1.1-1.9-1.4-3c-0.3-1-0.5-2.1-0.5-3.1
		c-0.1-2.4,1.1-4.6,3-6c1-0.8,2.1-1.4,3.3-1.9c1.7-0.7,3.4-1.3,5.1-1.8c0.8,1.5,1.7,2.9,2.7,4.2c0.9,1.3,2.2,2.9,3.8,4.7
		c2.7,3.2,5.7,6.1,8.8,8.8L375.4,39.6z"/>
	<polyline class="st0" points="405.6,28.6 405.6,28.7 405.6,28.6 405.6,28.6 	"/>
	<polyline class="st0" points="405.6,28.6 405.6,28.6 405.6,28.7 405.6,28.6 	"/>
</g>
</svg>
