<?xml version="1.0" encoding="UTF-8"?>
<svg width="18px" height="20px" viewBox="0 0 18 20" version="1.1" xmlns="http://www.w3.org/2000/svg" xmlns:xlink="http://www.w3.org/1999/xlink">
    <!-- Generator: Sketch 46.2 (44496) - http://www.bohemiancoding.com/sketch -->
    <title>perm_contact_calendar-24px</title>
    <desc>Created with Sketch.</desc>
    <defs></defs>
    <g id="Page-1" stroke="none" stroke-width="1" fill="none" fill-rule="evenodd">
        <g id="perm_contact_calendar-24px" transform="translate(-3.000000, -1.000000)">
            <polygon id="Shape" points="0 0 24 0 24 24 0 24"></polygon>
            <path d="M19,3 L18,3 L18,2 C18,1.45 17.55,1 17,1 C16.45,1 16,1.45 16,2 L16,3 L8,3 L8,2 C8,1.45 7.55,1 7,1 C6.45,1 6,1.45 6,2 L6,3 L5,3 C3.89,3 3,3.9 3,5 L3,19 C3,20.1 3.9,21 5,21 L19,21 C20.1,21 21,20.1 21,19 L21,5 C21,3.9 20.1,3 19,3 Z M12,6 C13.66,6 15,7.34 15,9 C15,10.66 13.66,12 12,12 C10.34,12 9,10.66 9,9 C9,7.34 10.34,6 12,6 Z M18,18 L6,18 L6,17 C6,15 10,13.9 12,13.9 C14,13.9 18,15 18,17 L18,18 Z" id="Shape" fill="#FFFFFF" fill-rule="nonzero"></path>
        </g>
    </g>
</svg>